<svg xmlns="http://www.w3.org/2000/svg" viewBox="0 0 24 24">
  <title>paint-off</title>
  <path fill="currentColor" fill-rule="nonzero" d="M4.4531 10.5938 5.4844 9.5156Q5.9248 9.1172 6.3651 8.9814L16.1874 18.8037Q16.0549 19.2526 15.6562 19.6875L14.625 20.7188Q13.2656 22.0781 11.8125 20.625L9.8438 18.7031Q9.7031 18.8906 8.8828 20.4375Q8.0625 21.9844 7.5 22.5469Q6.4219 23.625 5.1094 23.6016Q3.7969 23.5781 2.6719 22.5Q1.5938 21.375 1.5703 20.0625Q1.5469 18.75 2.625 17.6719Q3.1875 17.1094 4.7344 16.2891Q6.2812 15.4688 6.4688 15.3281L4.5469 13.4062Q3.0938 11.9531 4.4531 10.5938ZM9.0826 6.4663Q10.1914 4.477 10.7344 1.9219Q10.9219 1.125 11.3906 0.6562Q11.9062 0.1875 12.5391 0.2109Q13.1719 0.2344 13.6875 0.75L21.5625 8.625Q22.5125 9.5506 22.5005 10.4636Q22.4894 11.3075 21.6562 12.1406L18.2066 15.5903L17.1216 14.5053L20.4375 11.1562Q20.7559 10.8591 20.7763 10.5427Q20.801 10.1604 20.3906 9.75L19.6875 9.0469Q18.5625 10.0312 16.9922 11.0391Q15.4219 12.0469 15.0938 11.7188Q14.9062 11.5312 15.1406 11.2969Q17.3906 9.0469 17.6719 7.0781L12.9375 2.2969Q12.7537 2.1131 12.5994 2.1352Q12.4781 2.1525 12.375 2.2969Q12.2344 2.4375 12.1875 2.625Q11.5104 5.1908 10.1561 7.5398ZM5.7656 11.4844Q5.463 11.787 5.486 12.0624Q5.5057 12.299 5.7656 12.5156L8.25 14.9531Q8.4522 15.1216 8.4787 15.3143Q8.5261 15.6577 8.0156 16.0781Q7.6875 16.3125 5.9062 17.2969Q4.125 18.2812 3.7031 18.7031Q3.0469 19.3125 3.0469 20.0625Q3.0469 20.8125 3.7031 21.4688Q4.3594 22.125 5.1094 22.125Q5.8594 22.125 6.4688 21.4688Q6.8906 21.0469 7.875 19.2891Q8.8594 17.5312 9.0938 17.2031Q9.5302 16.6732 9.8836 16.7237Q10.0617 16.7491 10.2188 16.9219L12.6562 19.4062Q13.1719 19.9219 13.6875 19.4062L14.3438 18.75Q14.8125 18.2812 14.2969 17.7188L7.4531 10.875Q7.1365 10.5584 6.8496 10.5833Q6.6268 10.6027 6.4219 10.8281ZM3.548 2.452 21.548 20.452Q21.602 20.506 21.6444 20.5694Q21.6868 20.6329 21.716 20.7034Q21.7452 20.7739 21.7601 20.8488Q21.775 20.9237 21.775 21Q21.775 21.0763 21.7601 21.1512Q21.7452 21.2261 21.716 21.2966Q21.6868 21.3671 21.6444 21.4306Q21.602 21.494 21.548 21.548Q21.494 21.602 21.4306 21.6444Q21.3671 21.6868 21.2966 21.716Q21.2261 21.7452 21.1512 21.7601Q21.0763 21.775 21 21.775Q20.9237 21.775 20.8488 21.7601Q20.7739 21.7452 20.7034 21.716Q20.6329 21.6868 20.5694 21.6444Q20.506 21.602 20.452 21.548L2.452 3.548Q2.398 3.494 2.3556 3.4306Q2.3132 3.3671 2.284 3.2966Q2.2548 3.2261 2.2399 3.1512Q2.225 3.0763 2.225 3Q2.225 2.9237 2.2399 2.8488Q2.2548 2.7739 2.284 2.7034Q2.3132 2.6329 2.3556 2.5694Q2.398 2.506 2.452 2.452Q2.506 2.398 2.5694 2.3556Q2.6329 2.3132 2.7034 2.284Q2.7739 2.2548 2.8488 2.2399Q2.9237 2.225 3 2.225Q3.0763 2.225 3.1512 2.2399Q3.2261 2.2548 3.2966 2.284Q3.3671 2.3132 3.4306 2.3556Q3.494 2.398 3.548 2.452ZM4.3594 20.8125Q3.8438 20.2969 4.3594 19.7344Q4.6069 19.4643 4.8652 19.4536Q5.145 19.4419 5.4375 19.7344Q5.9531 20.2969 5.4375 20.8125Q5.19 21.0825 4.9316 21.0933Q4.6518 21.105 4.3594 20.8125Z"/>
</svg>
