<svg xmlns="http://www.w3.org/2000/svg" viewBox="0 0 24 24">
  <title>scale</title>
  <path fill="currentColor" fill-rule="nonzero" d="M12.75 3V4.4299C13.0284 4.5722 13.2611 4.7913 13.42 5.0593L19.6034 4.2562Q19.6767 4.2467 19.7504 4.2517Q19.8241 4.2567 19.8954 4.2759Q19.9667 4.2951 20.0329 4.3279Q20.0991 4.3607 20.1576 4.4058Q20.2161 4.4509 20.2647 4.5065Q20.3134 4.5621 20.3502 4.6261Q20.387 4.6902 20.4106 4.7602Q20.4342 4.8302 20.4438 4.9034Q20.4533 4.9767 20.4483 5.0504Q20.4433 5.1241 20.4241 5.1954Q20.4049 5.2667 20.3721 5.3329Q20.3393 5.3991 20.2942 5.4576Q20.2491 5.5161 20.1935 5.5647Q20.1379 5.6134 20.0739 5.6502Q20.0098 5.687 19.9398 5.7106Q19.8817 5.7302 19.8214 5.7401L22.9745 11.6959Q23.05 11.8386 23.05 12Q23.05 12.064 23.0375 12.1268Q23.025 12.1896 23.0005 12.2487Q22.976 12.3079 22.9405 12.3611Q22.9049 12.4143 22.8596 12.4596Q22.8143 12.5049 22.7611 12.5405Q22.7079 12.576 22.6487 12.6005Q22.5896 12.625 22.5268 12.6375Q22.464 12.65 22.4 12.65H22.1386Q21.1527 14.7 18.8 14.7Q16.4473 14.7 15.4614 12.65H15.2Q15.0386 12.65 14.8959 12.5745Q14.8393 12.5445 14.7896 12.5041Q14.74 12.4637 14.6992 12.4143Q14.6584 12.365 14.628 12.3087Q14.5976 12.2523 14.5787 12.1912Q14.5599 12.13 14.5534 12.0663Q14.5469 12.0026 14.5529 11.9389Q14.5589 11.8751 14.5772 11.8138Q14.5956 11.7525 14.6255 11.6959L17.6275 6.0255L13.5128 6.5598C13.3598 6.9101 13.0888 7.1969 12.75 7.3701V19.25H16.5Q16.5739 19.25 16.6463 19.2644Q16.7188 19.2788 16.787 19.3071Q16.8553 19.3354 16.9167 19.3764Q16.9781 19.4174 17.0303 19.4697Q17.0826 19.5219 17.1236 19.5833Q17.1646 19.6447 17.1929 19.713Q17.2212 19.7812 17.2356 19.8537Q17.25 19.9261 17.25 20Q17.25 20.0739 17.2356 20.1463Q17.2212 20.2188 17.1929 20.287Q17.1646 20.3553 17.1236 20.4167Q17.0826 20.4781 17.0303 20.5303Q16.9781 20.5826 16.9167 20.6236Q16.8553 20.6646 16.787 20.6929Q16.7188 20.7212 16.6463 20.7356Q16.5739 20.75 16.5 20.75H7.5Q7.4261 20.75 7.3537 20.7356Q7.2812 20.7212 7.213 20.6929Q7.1447 20.6646 7.0833 20.6236Q7.0219 20.5826 6.9697 20.5303Q6.9174 20.4781 6.8764 20.4167Q6.8354 20.3553 6.8071 20.287Q6.7788 20.2188 6.7644 20.1463Q6.75 20.0739 6.75 20Q6.75 19.9261 6.7644 19.8537Q6.7788 19.7812 6.8071 19.713Q6.8354 19.6447 6.8764 19.5833Q6.9174 19.5219 6.9697 19.4697Q7.0219 19.4174 7.0833 19.3764Q7.1447 19.3354 7.213 19.3071Q7.2812 19.2788 7.3537 19.2644Q7.4261 19.25 7.5 19.25H11.25V7.3701C11.0382 7.2618 10.8529 7.1091 10.7064 6.9243L6.2049 7.5089L9.3745 13.4959Q9.45 13.6386 9.45 13.8Q9.45 13.864 9.4375 13.9268Q9.425 13.9896 9.4005 14.0487Q9.376 14.1079 9.3405 14.1611Q9.3049 14.2143 9.2596 14.2596Q9.2143 14.3049 9.1611 14.3405Q9.1079 14.376 9.0487 14.4005Q8.9896 14.425 8.9268 14.4375Q8.864 14.45 8.8 14.45H8.5386Q7.5527 16.5 5.2 16.5Q2.8473 16.5 1.8614 14.45H1.6Q1.4386 14.45 1.2959 14.3745Q1.2393 14.3445 1.1896 14.3041Q1.14 14.2637 1.0992 14.2143Q1.0584 14.165 1.028 14.1087Q0.9976 14.0523 0.9787 13.9912Q0.9599 13.93 0.9534 13.8663Q0.9469 13.8026 0.9529 13.7389Q0.9589 13.6751 0.9772 13.6138Q0.9956 13.5525 1.0255 13.4959L4.0843 7.7183Q4.0238 7.7002 3.9671 7.6721Q3.9009 7.6393 3.8424 7.5942Q3.7839 7.5491 3.7353 7.4935Q3.6866 7.4379 3.6498 7.3739Q3.613 7.3098 3.5894 7.2398Q3.5658 7.1698 3.5562 7.0966Q3.5467 7.0233 3.5517 6.9496Q3.5567 6.8759 3.5759 6.8046Q3.5951 6.7333 3.6279 6.6671Q3.6607 6.6009 3.7058 6.5424Q3.7509 6.4839 3.8065 6.4353Q3.8621 6.3866 3.9261 6.3498Q3.9902 6.313 4.0602 6.2894Q4.1302 6.2658 4.2034 6.2562L10.4121 5.4499C10.538 5.005 10.8458 4.6366 11.25 4.4299V3Q11.25 2.9261 11.2644 2.8537Q11.2788 2.7812 11.3071 2.713Q11.3354 2.6447 11.3764 2.5833Q11.4174 2.5219 11.4697 2.4697Q11.5219 2.4174 11.5833 2.3764Q11.6447 2.3354 11.713 2.3071Q11.7812 2.2788 11.8537 2.2644Q11.9261 2.25 12 2.25Q12.0739 2.25 12.1463 2.2644Q12.2188 2.2788 12.287 2.3071Q12.3553 2.3354 12.4167 2.3764Q12.4781 2.4174 12.5303 2.4697Q12.5826 2.5219 12.6236 2.5833Q12.6646 2.6447 12.6929 2.713Q12.7212 2.7812 12.7356 2.8537Q12.75 2.9261 12.75 3ZM5.2 8.3892 2.6796 13.15H7.7204ZM18.8 6.5892 16.2796 11.35H21.3204Z"/>
</svg>
